<?xml version="1.0" encoding="UTF-8" standalone="no"?>
<svg width="18px" height="18px" viewBox="0 0 18 18" version="1.1" xmlns="http://www.w3.org/2000/svg" xmlns:xlink="http://www.w3.org/1999/xlink">
    <!-- Generator: Sketch 48.1 (47250) - http://www.bohemiancoding.com/sketch -->
    <title>BPJS</title>
    <desc>Created with Sketch.</desc>
    <defs></defs>
    <g id="BPJS_M_01" stroke="none" stroke-width="1" fill="none" fill-rule="evenodd" transform="translate(-188.000000, -180.000000)">
        <g id="TAB" transform="translate(0.000000, 170.000000)">
            <g id="Group-4" transform="translate(182.000000, 9.000000)">
                <g id="BPJS" transform="translate(5.000000, 0.000000)">
                    <path d="M13.0140369,3.33333333 L14.1666667,3.33333333 C15.5473785,3.33333333 16.6666667,4.45262146 16.6666667,5.83333333 L16.6666667,6.80541724 M16.6666667,13.5524376 L16.6666667,14.1666667 C16.6666667,15.5473785 15.5473785,16.6666667 14.1666667,16.6666667 L13.6540036,16.6666667 M6.91712549,16.6666667 L5.83333333,16.6666667 C4.45262146,16.6666667 3.33333333,15.5473785 3.33333333,14.1666667 L3.33333333,12.9255622 M3.33333333,6.25097601 L3.33333333,5.83333333 C3.33333333,4.45262146 4.45262146,3.33333333 5.83333333,3.33333333 L6.34196825,3.33333333" id="Rectangle-5" stroke="#EE5456" transform="translate(10.000000, 10.000000) rotate(-45.000000) translate(-10.000000, -10.000000) "></path>
                    <circle id="Oval" fill="#EE5456" cx="4.91983827" cy="5.33650494" r="2.5"></circle>
                    <circle id="Oval" fill="#EE5456" cx="14.9198383" cy="5.33650494" r="2.5"></circle>
                    <circle id="Oval" fill="#EE5456" cx="4.91983827" cy="14.5031716" r="2.5"></circle>
                    <circle id="Oval" fill="#EE5456" cx="14.9198383" cy="14.5031716" r="2.5"></circle>
                </g>
            </g>
        </g>
    </g>
</svg>