<?xml version="1.0" encoding="UTF-8" standalone="no"?>
<svg width="19px" height="19px" viewBox="0 0 19 19" version="1.1" xmlns="http://www.w3.org/2000/svg" xmlns:xlink="http://www.w3.org/1999/xlink">
    <!-- Generator: Sketch 48.1 (47250) - http://www.bohemiancoding.com/sketch -->
    <title>BPJS</title>
    <desc>Created with Sketch.</desc>
    <defs></defs>
    <g id="PDAM_M_01" stroke="none" stroke-width="1" fill="none" fill-rule="evenodd" transform="translate(-187.000000, -179.000000)">
        <g id="TAB" transform="translate(0.000000, 170.000000)" stroke="#333333">
            <g id="Group-4" transform="translate(182.000000, 9.000000)">
                <g id="BPJS" transform="translate(5.000000, 0.000000)">
                    <path d="M12.438686,3 L13.5625,3 C14.9086941,3 16,4.09130592 16,5.4375 L16,6.38528181 M16,12.9636267 L16,13.5625 C16,14.9086941 14.9086941,16 13.5625,16 L13.0626535,16 M6.49419736,16 L5.4375,16 C4.09130592,16 3,14.9086941 3,13.5625 L3,12.3524232 M3,5.84470161 L3,5.4375 C3,4.09130592 4.09130592,3 5.4375,3 L5.93341904,3" id="Rectangle-5" transform="translate(9.500000, 9.500000) rotate(-45.000000) translate(-9.500000, -9.500000) "></path>
                    <circle id="Oval" cx="4.5" cy="5.5" r="2"></circle>
                    <circle id="Oval" cx="14.5" cy="5.5" r="2"></circle>
                    <circle id="Oval" cx="4.5" cy="14.5" r="2"></circle>
                    <circle id="Oval" cx="14.5" cy="14.5" r="2"></circle>
                </g>
            </g>
        </g>
    </g>
</svg>