<?xml version="1.0" encoding="UTF-8" standalone="no"?>
<svg width="12px" height="20px" viewBox="0 0 12 20" version="1.1" xmlns="http://www.w3.org/2000/svg" xmlns:xlink="http://www.w3.org/1999/xlink">
    <!-- Generator: Sketch 48.1 (47250) - http://www.bohemiancoding.com/sketch -->
    <title>Combined Shape</title>
    <desc>Created with Sketch.</desc>
    <defs></defs>
    <g id="PDAM_M_01" stroke="none" stroke-width="1" fill="none" fill-rule="evenodd" transform="translate(-109.000000, -178.000000)">
        <g id="TAB" transform="translate(0.000000, 170.000000)" fill="#EF5557" fill-rule="nonzero">
            <g id="Group-4" transform="translate(98.000000, 8.000000)">
                <path d="M13.2584627,8.22465897 C14.4144941,6.08006536 15.2702464,4.28193356 16.1097289,2.20382942 L17,0 L17.8902711,2.20382942 C18.7297536,4.28193356 19.5855059,6.08006536 20.7415373,8.22465897 C21.8542189,10.288833 22.0875115,10.7280657 22.3101442,11.1922254 C22.5517129,11.6958645 22.6238208,11.9061861 22.7937444,12.536159 C22.9323897,13.0501713 23,13.5496002 23,14.0696367 C23,17.3475704 20.3110573,20 17,20 C13.6889427,20 11,17.3475704 11,14.0696367 C11,13.5496002 11.0676103,13.0501713 11.2062556,12.536159 C11.3761792,11.9061861 11.4482871,11.6958645 11.6898558,11.1922254 C11.9124885,10.7280657 12.1457811,10.288833 13.2584627,8.22465897 Z M15.2334861,18.0066016 C15.7611396,18.2720285 16.3452642,18.4122441 16.9484186,18.4122441 C17.8866029,18.4122441 18.7733263,18.0722999 19.4644115,17.4668606 C19.6722664,17.2847651 19.692964,16.9688582 19.5106408,16.7612629 C19.3283176,16.5536675 19.0120158,16.5329958 18.8041609,16.7150913 C18.2940139,17.162016 17.6413094,17.4122441 16.9484186,17.4122441 C16.5025885,17.4122441 16.0726036,17.3090288 15.6838763,17.1134863 C15.4369409,16.9892698 15.135937,17.0885031 15.0115652,17.3351301 C14.8871934,17.5817571 14.9865508,17.8823851 15.2334861,18.0066016 Z M20.3663696,16.2985362 C20.6274831,15.775253 20.7653077,15.1969976 20.7653077,14.600121 C20.7653077,14.3239786 20.5411702,14.100121 20.2646826,14.100121 C19.988195,14.100121 19.7640575,14.3239786 19.7640575,14.600121 C19.7640575,15.0413194 19.6625999,15.4669934 19.4702398,15.8524917 C19.3469141,16.0996422 19.4475443,16.3998476 19.6950037,16.5230194 C19.9424631,16.6461911 20.2430439,16.5456866 20.3663696,16.2985362 Z" id="Combined-Shape"></path>
            </g>
        </g>
    </g>
</svg>