<?xml version="1.0" encoding="UTF-8" standalone="no"?>
<svg width="12px" height="21px" viewBox="0 0 12 21" version="1.1" xmlns="http://www.w3.org/2000/svg" xmlns:xlink="http://www.w3.org/1999/xlink">
    <!-- Generator: Sketch 48.1 (47250) - http://www.bohemiancoding.com/sketch -->
    <title>Combined Shape</title>
    <desc>Created with Sketch.</desc>
    <defs></defs>
    <g id="BPJS_M_01" stroke="none" stroke-width="1" fill="none" fill-rule="evenodd" transform="translate(-108.000000, -178.000000)">
        <g id="TAB" transform="translate(0.000000, 170.000000)" fill-rule="nonzero" stroke="#333333">
            <g id="Group-4" transform="translate(98.000000, 11.000000)">
                <path d="M12.4419239,6.61663368 C13.4080369,4.82436421 14.1098627,3.34405087 14.7945057,1.64924541 L16,-1.33490596 L17.2054943,1.64924541 C17.8901373,3.34405087 18.5919631,4.82436421 19.5580761,6.61663368 C20.5119243,8.38615012 20.6893957,8.72169033 20.8759438,9.11061852 C21.0864144,9.54942198 21.1577707,9.74899795 21.3108674,10.316587 C21.4380372,10.7880545 21.5,11.2480048 21.5,11.7246972 C21.5,14.7323098 19.0355356,17.1666667 16,17.1666667 C12.9644644,17.1666667 10.5,14.7323098 10.5,11.7246972 C10.5,11.2480048 10.5619628,10.7880545 10.6891326,10.316587 C10.8422293,9.74899795 10.9135856,9.54942198 11.1240562,9.11061852 C11.3106043,8.72169033 11.4880757,8.38615012 12.4419239,6.61663368 Z M17.8141436,14.3177558 C17.7816266,14.3333362 17.7415442,14.3261574 17.7165203,14.297665 C17.6860605,14.2629831 17.6895321,14.2099964 17.724196,14.1796284 C17.2350966,14.608114 16.6118493,14.8435367 15.9570155,14.8435367 C15.5351143,14.8435367 15.1250066,14.7461661 14.7525949,14.5588309 C14.7936054,14.5794605 14.8102387,14.6297882 14.7894157,14.6710798 C14.7687693,14.7120212 14.7192009,14.7283626 14.6785405,14.7079091 C15.0741121,14.9068945 15.5096134,15.0102034 15.9570155,15.0102034 C16.6490394,15.0102034 17.3084884,14.7621794 17.826777,14.3107219 Z M18.8003041,12.1893646 C18.7905027,12.224481 18.7584239,12.2501009 18.7205688,12.2501009 C18.6749726,12.2501009 18.6377564,12.2129312 18.6377564,12.1667675 C18.6377564,12.5840227 18.5420987,12.9897535 18.357914,13.358868 C18.3783882,13.3178368 18.4278895,13.3012851 18.4686355,13.3215663 C18.50973,13.3420209 18.5265755,13.3922752 18.5059273,13.4336553 C18.7005442,13.0436342 18.8021084,12.6151919 18.8033693,12.1750664 Z" id="Combined-Shape"></path>
            </g>
        </g>
    </g>
</svg>