<?xml version="1.0" encoding="UTF-8" standalone="no"?>
<svg width="15px" height="26px" viewBox="0 0 15 26" version="1.1" xmlns="http://www.w3.org/2000/svg" xmlns:xlink="http://www.w3.org/1999/xlink">
    <!-- Generator: Sketch 48.1 (47250) - http://www.bohemiancoding.com/sketch -->
    <title>Electricity</title>
    <desc>Created with Sketch.</desc>
    <defs></defs>
    <g id="1-电费充值-预付费-copy" stroke="none" stroke-width="1" fill="none" fill-rule="evenodd" transform="translate(-304.000000, -196.000000)">
        <g id="Group-3" transform="translate(-151.000000, 195.000000)" fill="#DF0617" fill-rule="nonzero">
            <path d="M460.1,17.1838556 C460.099993,16.2144534 459.575636,15.3209831 458.728974,14.844455 C458.407082,14.6632845 458.160593,14.5079984 457.994295,14.3838576 C456.121742,12.986005 455,10.8047802 455,8.4375 C455,4.33154098 458.356219,1 462.5,1 C466.643781,1 470,4.33154098 470,8.4375 C470,10.7999321 468.882888,12.9771808 467.016792,14.3755655 C466.84826,14.5018569 466.597831,14.6599114 466.270387,14.8443366 C465.42411,15.3208546 464.9,16.2141621 464.9,17.1833423 L464.9,18.5625 C464.9,18.940537 464.588245,19.25 464.2,19.25 L460.8,19.25 C460.411755,19.25 460.1,18.940537 460.1,18.5625 L460.1,17.1838556 Z M463,12 L464.5,12 C464.776142,12 465,11.7761424 465,11.5 C465,11.2238576 464.776142,11 464.5,11 L460.5,11 C460.223858,11 460,11.2238576 460,11.5 C460,11.7761424 460.223858,12 460.5,12 L462,12 L462,16.5 C462,16.7761424 462.223858,17 462.5,17 C462.776142,17 463,16.7761424 463,16.5 L463,12 Z M460.5,21 L464.5,21 C464.776142,21 465,21.2238576 465,21.5 C465,21.7761424 464.776142,22 464.5,22 L460.5,22 C460.223858,22 460,21.7761424 460,21.5 C460,21.2238576 460.223858,21 460.5,21 Z M460.5,23 L464.5,23 C464.776142,23 465,23.2238576 465,23.5 C465,23.7761424 464.776142,24 464.5,24 L460.5,24 C460.223858,24 460,23.7761424 460,23.5 C460,23.2238576 460.223858,23 460.5,23 Z M461.5,26 L463.5,26 C463.776142,26 464,26.2238576 464,26.5 C464,26.7761424 463.776142,27 463.5,27 L461.5,27 C461.223858,27 461,26.7761424 461,26.5 C461,26.2238576 461.223858,26 461.5,26 Z" id="Electricity"></path>
        </g>
    </g>
</svg>