<?xml version="1.0" encoding="UTF-8" standalone="no"?>
<svg width="17px" height="27px" viewBox="0 0 17 27" version="1.1" xmlns="http://www.w3.org/2000/svg" xmlns:xlink="http://www.w3.org/1999/xlink">
    <!-- Generator: Sketch 48.1 (47250) - http://www.bohemiancoding.com/sketch -->
    <title>Electricity</title>
    <desc>Created with Sketch.</desc>
    <defs></defs>
    <g id="1-电费充值-预付费-copy" stroke="none" stroke-width="1" fill="none" fill-rule="evenodd" transform="translate(-263.000000, -195.000000)">
        <g id="Group-3" transform="translate(-151.000000, 195.000000)" fill="#333333" fill-rule="nonzero">
            <path d="M420.1,17.1838556 L420.1,18.5625 C420.1,18.940537 420.411755,19.25 420.8,19.25 L424.2,19.25 C424.588245,19.25 424.9,18.940537 424.9,18.5625 L424.9,17.1833423 C424.9,16.2141621 425.42411,15.3208546 426.270387,14.8443366 C426.597831,14.6599114 426.84826,14.5018569 427.016792,14.3755655 C428.882888,12.9771808 430,10.7999321 430,8.4375 C430,4.33154098 426.643781,1 422.5,1 C418.356219,1 415,4.33154098 415,8.4375 C415,10.8047802 416.121742,12.986005 417.994295,14.3838576 C418.160593,14.5079984 418.407082,14.6632845 418.728974,14.844455 C419.575636,15.3209831 420.099993,16.2144534 420.1,17.1838556 Z M418.238493,15.7159071 C417.882248,15.5154015 417.601449,15.3385002 417.396093,15.1852034 C415.333756,13.6456773 414,11.1962011 414,8.4375 C414,3.77759742 417.80558,0 422.5,0 C427.19442,0 431,3.77759742 431,8.4375 C431,11.1905969 429.671657,13.6357241 427.616466,15.1758098 C427.408437,15.3316992 427.123325,15.5116431 426.76113,15.7156412 C426.228868,16.0153447 425.9,16.5759101 425.9,17.1833423 L425.9,18.5625 C425.9,19.4944805 425.138884,20.25 424.2,20.25 L420.8,20.25 C419.861116,20.25 419.1,19.4944805 419.1,18.5625 L419.1,17.1838556 C419.099996,16.5762683 418.770947,16.0155889 418.238493,15.7159071 Z M423,12 L424.5,12 C424.776142,12 425,11.7761424 425,11.5 C425,11.2238576 424.776142,11 424.5,11 L420.5,11 C420.223858,11 420,11.2238576 420,11.5 C420,11.7761424 420.223858,12 420.5,12 L422,12 L422,16.5 C422,16.7761424 422.223858,17 422.5,17 C422.776142,17 423,16.7761424 423,16.5 L423,12 Z M420.5,21 L424.5,21 C424.776142,21 425,21.2238576 425,21.5 C425,21.7761424 424.776142,22 424.5,22 L420.5,22 C420.223858,22 420,21.7761424 420,21.5 C420,21.2238576 420.223858,21 420.5,21 Z M420.5,23 L424.5,23 C424.776142,23 425,23.2238576 425,23.5 C425,23.7761424 424.776142,24 424.5,24 L420.5,24 C420.223858,24 420,23.7761424 420,23.5 C420,23.2238576 420.223858,23 420.5,23 Z M421.5,26 L423.5,26 C423.776142,26 424,26.2238576 424,26.5 C424,26.7761424 423.776142,27 423.5,27 L421.5,27 C421.223858,27 421,26.7761424 421,26.5 C421,26.2238576 421.223858,26 421.5,26 Z" id="Electricity"></path>
        </g>
    </g>
</svg>